<svg width="138" height="50" viewBox="0 0 138 50" fill="none" xmlns="http://www.w3.org/2000/svg">
<path d="M0.547573 49.5842C0.676862 33.0922 0.467719 14.5197 0 1.04512C2.4869 0.783587 6.42258 0.52596 8.86765 0.545477C9.00835 0.545477 9.14904 0.549381 9.28214 0.549381C14.5753 0.666484 18.4464 2.09123 20.9257 4.82363C22.9411 7.04468 24.0248 9.82002 24.002 13.2824C23.9259 23.6772 12.9745 24.9107 12.9745 24.9107L13.252 24.9185C13.2901 24.9185 25.3709 25.4962 25.4964 36.4453C25.7246 48.7138 13.6285 49.6115 7.917 49.5686C7.67364 49.5686 7.43027 49.5764 7.1831 49.5764L0.547573 49.5842Z" fill="white"/>
<path d="M124.718 35.2664C124.938 34.2242 125.596 31.929 125.912 30.9883L137.388 33.3772C137.19 34.3374 136.677 36.1369 136.262 37.6007C136.064 38.2955 135.89 38.9083 135.779 39.3299L124.718 35.2664Z" fill="white"/>
<path d="M122.059 28.0999L121.976 27.9788C121.424 27.1591 120.253 24.9771 119.728 23.6929L119.671 23.5524L119.804 23.4782C122.85 21.7997 125.953 19.6997 128.957 17.666C130.961 16.3115 133.034 14.9063 135.038 13.6689L135.178 13.583L135.262 13.7274C135.737 14.5276 136.54 16.4754 137.186 18.0446C137.498 18.8019 137.768 19.4577 137.935 19.8207L138 19.9612L137.867 20.0393C135.034 21.6865 131.836 23.2401 128.744 24.7468C126.55 25.8124 124.284 26.9171 122.193 28.0335L122.059 28.0999Z" fill="white"/>
<path d="M89.8745 48.6627H100.932C100.157 43.8771 99.978 40.3211 99.978 40.2391L99.9704 39.8332L119.641 48.5378L124.261 42.5031C116.455 37.3662 104.332 29.6647 103.777 29.1183L103.644 28.9855L103.784 28.8645C103.853 28.806 116.405 19.2816 125.25 12.2984L121.113 5.03411L99.7613 12.1071L99.7004 0.556885H89.8745C89.8745 0.560788 90.6845 28.1229 89.8745 48.6627Z" fill="white"/>
<path d="M47.837 0.607907C49.9132 16.1982 52.9401 37.4016 56.2597 49.6154L46.6163 49.7325C44.8291 43.085 42.848 32.9868 42.8252 32.8775L42.7909 32.7097L38.0871 33.666L35.1743 48.6044H25.7705C28.592 35.0674 32.3186 15.7532 34.1818 0.604004H47.837V0.607907Z" fill="white"/>
<path d="M81.193 49.6893C75.9835 44.3611 69.6635 32.7836 68.5532 30.4923L67.8611 30.5079C67.9067 32.6274 67.9372 33.7555 68.0056 35.9024C68.1235 39.6653 68.2452 43.6156 68.249 48.6081H59.3737C59.3699 33.5799 59.0961 18.4502 58.5295 1.0292C60.91 0.728635 64.1003 0.556885 67.3211 0.556885C74.759 0.556885 84.2123 2.99262 84.2123 14.7185C84.2123 19.5978 81.7786 23.7315 78.4285 26.3117C78.246 26.4834 78.0559 26.6435 77.8429 26.7996L77.7327 26.8816L77.7897 27.0104C79.2727 30.2932 83.5392 38.8846 88.5244 44.9896L81.193 49.6893Z" fill="white"/>
</svg>
